<svg width="27" height="28" viewBox="0 0 27 28" fill="none" xmlns="http://www.w3.org/2000/svg">
<path d="M5.193 21.7812C4.67475 21.7812 4.24238 21.608 3.89588 21.2615C3.54938 20.915 3.37575 20.4823 3.375 19.9633V7.84925C3.375 7.331 3.54863 6.89862 3.89588 6.55212C4.24313 6.20562 4.67512 6.032 5.19187 6.03125H21.8081C22.3256 6.03125 22.7576 6.20487 23.1041 6.55212C23.4506 6.89937 23.6243 7.33175 23.625 7.84925V19.9644C23.625 20.4819 23.4514 20.9143 23.1041 21.2615C22.7569 21.6088 22.3249 21.782 21.8081 21.7812H5.193ZM13.5 14.0367L4.5 8.15188V19.9644C4.5 20.1661 4.56487 20.3319 4.69462 20.4616C4.82437 20.5914 4.9905 20.6562 5.193 20.6562H21.8081C22.0099 20.6562 22.1756 20.5914 22.3054 20.4616C22.4351 20.3319 22.5 20.1658 22.5 19.9633V8.15075L13.5 14.0367ZM13.5 12.7812L22.1535 7.15625H4.8465L13.5 12.7812ZM4.5 8.15188V7.15625V19.9644C4.5 20.1661 4.56487 20.3319 4.69462 20.4616C4.82437 20.5914 4.9905 20.6562 5.193 20.6562H4.5V8.15188Z" fill="white"/>
</svg>
