<svg width="30" height="31" viewBox="0 0 30 31" fill="none" xmlns="http://www.w3.org/2000/svg">
<path d="M5 14.7951C5 10.6051 5 8.50958 6.30222 7.20847C7.60444 5.90736 9.69889 5.90625 13.8889 5.90625H16.1111C20.3011 5.90625 22.3967 5.90625 23.6978 7.20847C24.9989 8.51069 25 10.6051 25 14.7951V17.0174C25 21.2074 25 23.3029 23.6978 24.604C22.3956 25.9051 20.3011 25.9063 16.1111 25.9063H13.8889C9.69889 25.9063 7.60333 25.9063 6.30222 24.604C5.00111 23.3018 5 21.2074 5 17.0174V14.7951Z" stroke="white"/>
<path d="M21.1666 10.9062C21.1666 11.5505 20.6443 12.0728 19.9999 12.0728C19.3556 12.0728 18.8333 11.5505 18.8333 10.9062C18.8333 10.2618 19.3556 9.7395 19.9999 9.7395C20.6443 9.7395 21.1666 10.2618 21.1666 10.9062Z" fill="black" stroke="white"/>
<path d="M15 19.7951C17.1477 19.7951 18.8889 18.054 18.8889 15.9062C18.8889 13.7584 17.1477 12.0173 15 12.0173C12.8522 12.0173 11.1111 13.7584 11.1111 15.9062C11.1111 18.054 12.8522 19.7951 15 19.7951Z" stroke="white"/>
</svg>
